<svg width="80" height="80" viewBox="0 0 80 80" fill="none" xmlns="http://www.w3.org/2000/svg">
<g filter="url(#filter0_ii_2311_15723)">
<path d="M39.5 78.252C30.6677 76.028 23.3757 70.9599 17.6239 63.0477C11.8721 55.1355 8.99746 46.3515 9 36.6957V13.4395L39.5 2.00195L70 13.4395V36.6957C70 46.354 67.1254 55.1393 61.3761 63.0515C55.6269 70.9637 48.3348 76.0305 39.5 78.252Z" fill="url(#paint0_linear_2311_15723)"/>
</g>
<path d="M43.925 35.5523H53.075V44.7023H43.925V53.8523H34.775V44.7023H25.625V35.5523H34.775V26.4023H43.925V35.5523Z" fill="url(#paint1_linear_2311_15723)"/>
<defs>
<filter id="filter0_ii_2311_15723" x="9" y="2.00195" width="61" height="76.25" filterUnits="userSpaceOnUse" color-interpolation-filters="sRGB">
<feFlood flood-opacity="0" result="BackgroundImageFix"/>
<feBlend mode="normal" in="SourceGraphic" in2="BackgroundImageFix" result="shape"/>
<feColorMatrix in="SourceAlpha" type="matrix" values="0 0 0 0 0 0 0 0 0 0 0 0 0 0 0 0 0 0 127 0" result="hardAlpha"/>
<feOffset dx="4.575" dy="4.575"/>
<feComposite in2="hardAlpha" operator="arithmetic" k2="-1" k3="1"/>
<feColorMatrix type="matrix" values="0 0 0 0 1 0 0 0 0 1 0 0 0 0 1 0 0 0 0.5 0"/>
<feBlend mode="normal" in2="shape" result="effect1_innerShadow_2311_15723"/>
<feColorMatrix in="SourceAlpha" type="matrix" values="0 0 0 0 0 0 0 0 0 0 0 0 0 0 0 0 0 0 127 0" result="hardAlpha"/>
<feOffset dx="-2.2875" dy="-2.2875"/>
<feComposite in2="hardAlpha" operator="arithmetic" k2="-1" k3="1"/>
<feColorMatrix type="matrix" values="0 0 0 0 0.270132 0 0 0 0 0.413598 0 0 0 0 0.776442 0 0 0 0.4 0"/>
<feBlend mode="normal" in2="effect1_innerShadow_2311_15723" result="effect2_innerShadow_2311_15723"/>
</filter>
<linearGradient id="paint0_linear_2311_15723" x1="39.5" y1="2.00195" x2="39.5" y2="78.252" gradientUnits="userSpaceOnUse">
<stop stop-color="#F2F4FF"/>
<stop offset="1" stop-color="#A2DEF5"/>
</linearGradient>
<linearGradient id="paint1_linear_2311_15723" x1="39.35" y1="26.4023" x2="39.35" y2="53.8523" gradientUnits="userSpaceOnUse">
<stop stop-color="#39A6FF"/>
<stop offset="1" stop-color="#4796FE"/>
</linearGradient>
</defs>
</svg>
